<?xml version="1.0" encoding="UTF-8" standalone="no"?>
<svg
   class="svglite"
   width="542.40pt"
   height="338.06pt"
   viewBox="0 0 542.40 338.06"
   version="1.1"
   id="svg314"
   sodipodi:docname="bostekoa.svg"
   inkscape:version="1.1 (c68e22c387, 2021-05-23)"
   xmlns:inkscape="http://www.inkscape.org/namespaces/inkscape"
   xmlns:sodipodi="http://sodipodi.sourceforge.net/DTD/sodipodi-0.dtd"
   xmlns="http://www.w3.org/2000/svg"
   xmlns:svg="http://www.w3.org/2000/svg">
  <sodipodi:namedview
     id="namedview316"
     pagecolor="#ffffff"
     bordercolor="#666666"
     borderopacity="1.0"
     inkscape:pageshadow="2"
     inkscape:pageopacity="0.0"
     inkscape:pagecheckerboard="0"
     inkscape:document-units="pt"
     showgrid="false"
     inkscape:zoom="1.7159844"
     inkscape:cx="361.60002"
     inkscape:cy="225.52652"
     inkscape:window-width="1920"
     inkscape:window-height="1021"
     inkscape:window-x="1912"
     inkscape:window-y="-8"
     inkscape:window-maximized="1"
     inkscape:current-layer="svg314" />
  <defs
     id="defs4">
    <style
       type="text/css"
       id="style2"><![CDATA[
    .svglite line, .svglite polyline, .svglite polygon, .svglite path, .svglite rect, .svglite circle {
      fill: none;
      stroke: #000000;
      stroke-linecap: round;
      stroke-linejoin: round;
      stroke-miterlimit: 10.00;
    }
    .svglite text {
      white-space: pre;
    }
  ]]></style>
  </defs>
  <rect
     width="100%"
     height="100%"
     style="stroke: none; fill: none;"
     id="rect6" />
  <defs
     id="defs11">
    <clipPath
       id="cpMC4wMHw1NDIuNDB8MC4wMHwzMzguMDY=">
      <rect
         x="0.00"
         y="0.00"
         width="542.40"
         height="338.06"
         id="rect8" />
    </clipPath>
  </defs>
  <g
     clip-path="url(#cpMC4wMHw1NDIuNDB8MC4wMHwzMzguMDY=)"
     id="g13" />
  <defs
     id="defs18" />
  <path
     d="m 198.61,59.07 -1.71,2.66 -1.57,2.63 -1.46,2.6 -1.33,2.6 -1.21,2.6 -1.08,2.62 -0.98,2.66 -0.85,2.72 -0.74,2.79 -0.62,2.87 -0.52,2.98 -0.4,3.09 -0.29,3.22 -0.19,3.38 -0.08,3.53 0.02,3.72 -1.47,0.65 -1.42,0.68 -1.36,0.72 -1.3,0.74 -1.25,0.78 -1.19,0.8 -1.14,0.84 -1.08,0.87 -1.02,0.89 -0.96,0.93 -0.91,0.96 -0.85,1 -0.79,1.02 -0.74,1.05 -0.67,1.09 -0.62,1.11 -0.56,1.15 -0.5,1.18 -0.44,1.21 -0.39,1.24 -0.32,1.27 -0.27,1.31 -0.2,1.33 -0.15,1.37 -0.09,1.4 -0.02,1.43 0.03,1.46 0.09,1.5 0.16,1.52 0.21,1.56 0.28,1.59 0.34,1.62 -7.64,4.22 -6.84,3.86 -3.16,1.89 -3.01,1.89 -2.87,1.93 -2.74,2 -2.64,2.09 -2.54,2.24 -2.46,2.39 -2.4,2.59 -2.34,2.82 -2.31,3.07 -2.29,3.36 -2.29,3.68 -1.44,-1.88 -1.38,-1.92 -1.32,-1.95 -1.26,-2 -1.19,-2.03 -1.13,-2.07 -1.07,-2.1 -0.99,-2.13 -0.94,-2.17 -0.86,-2.18 -0.8,-2.22 -0.73,-2.24 -0.66,-2.27 -0.59,-2.28 -0.52,-2.31 -0.45,-2.32 -0.37,-2.34 -0.3,-2.36 -0.23,-2.37 -0.15,-2.38 -0.08,-2.39 v -2.4 l 0.08,-2.4 0.16,-2.41 0.23,-2.41 0.32,-2.42 0.39,-2.41 0.48,-2.42 0.56,-2.41 0.64,-2.4 0.73,-2.4 0.81,-2.39 1.3,-3.42 1.44,-3.33 1.59,-3.23 1.72,-3.12 1.86,-3.02 1.98,-2.9 2.1,-2.79 2.22,-2.68 2.34,-2.56 2.43,-2.45 2.54,-2.32 2.64,-2.2 2.72,-2.07 2.82,-1.94 2.89,-1.82 2.97,-1.68 3.04,-1.55 3.1,-1.41 3.17,-1.27 3.22,-1.13 3.27,-0.99 3.31,-0.84 3.36,-0.69 3.39,-0.54 3.42,-0.39 3.45,-0.23 3.46,-0.08 3.48,0.08 3.49,0.25 3.5,0.41 3.49,0.57 z"
     style="fill:#ffffff;fill-rule:evenodd;stroke:#595959;stroke-width:0.43;stroke-linecap:butt"
     id="path20" />
  <path
     d="m 336.43,95.34 -3.2,-0.5 -3.09,-0.43 -3.01,-0.35 -2.94,-0.27 -2.88,-0.18 -2.82,-0.09 -2.79,0.01 -2.75,0.11 -2.75,0.21 -2.74,0.32 -2.75,0.44 -2.77,0.55 -2.81,0.68 -2.85,0.8 -2.91,0.94 -2.97,1.07 -1.27,-1.46 -1.27,-1.34 -1.27,-1.24 -1.27,-1.12 -1.27,-1.03 -1.26,-0.92 -1.26,-0.83 -1.26,-0.73 -1.25,-0.64 -1.26,-0.55 -1.24,-0.47 -1.25,-0.39 -1.24,-0.31 -1.24,-0.23 -1.23,-0.16 -1.23,-0.09 -1.23,-0.03 -1.22,0.04 -1.22,0.1 -1.21,0.15 -1.2,0.21 -1.2,0.26 -2.39,0.66 -2.35,0.82 -2.34,0.97 -2.3,1.08 -2.28,1.17 -2.76,-3.3 -2.74,-3.11 -2.74,-2.9 -2.75,-2.73 -2.79,-2.54 -2.85,-2.39 -2.93,-2.22 -3.03,-2.07 -3.15,-1.93 -3.28,-1.8 -3.45,-1.68 -3.62,-1.56 -3.82,-1.46 -4.05,-1.35 -4.28,-1.27 -4.54,-1.19 1.3,-1.85 1.36,-1.81 1.41,-1.77 1.46,-1.72 1.51,-1.68 1.55,-1.64 1.61,-1.58 1.65,-1.54 1.7,-1.49 1.74,-1.44 1.79,-1.38 1.83,-1.34 1.87,-1.28 1.9,-1.22 1.95,-1.17 1.98,-1.11 2.02,-1.05 2.06,-1 2.09,-0.93 2.12,-0.87 2.15,-0.81 2.18,-0.74 2.21,-0.68 2.24,-0.61 2.27,-0.54 2.29,-0.48 2.32,-0.4 2.34,-0.34 2.36,-0.26 2.39,-0.19 2.4,-0.11 2.42,-0.04 3.7,0.09 3.65,0.26 3.59,0.44 3.55,0.6 3.49,0.76 3.42,0.92 3.36,1.08 3.29,1.23 3.22,1.37 3.14,1.52 3.05,1.65 2.97,1.79 2.88,1.92 2.79,2.04 2.68,2.16 2.59,2.29 2.47,2.4 2.37,2.5 2.25,2.61 2.13,2.72 2.01,2.81 1.88,2.9 1.75,3 1.61,3.07 1.47,3.16 1.33,3.24 1.18,3.31 1.03,3.38 0.87,3.44 0.71,3.5 0.54,3.57 z"
     style="fill:#ffffff;fill-rule:evenodd;stroke:#595959;stroke-width:0.43;stroke-linecap:butt"
     id="path22" />
  <path
     d="m 346.83,238.9 -0.46,-3.4 -0.52,-3.31 -0.61,-3.23 -0.67,-3.15 -0.76,-3.07 -0.83,-3 -0.92,-2.93 -1,-2.85 -1.1,-2.79 -1.18,-2.73 -1.28,-2.67 -1.37,-2.6 -1.48,-2.56 -1.57,-2.5 -1.68,-2.46 -1.79,-2.41 0.89,-1.38 0.82,-1.38 0.74,-1.38 0.66,-1.36 0.59,-1.36 0.51,-1.35 0.44,-1.34 0.37,-1.33 0.3,-1.32 0.22,-1.31 0.16,-1.31 0.08,-1.29 0.01,-1.28 -0.05,-1.28 -0.13,-1.26 -0.19,-1.25 -0.26,-1.24 -0.32,-1.23 -0.39,-1.22 -0.46,-1.2 -0.52,-1.19 -0.59,-1.18 -0.65,-1.17 -0.71,-1.15 -0.77,-1.14 -0.84,-1.13 -0.89,-1.11 -0.96,-1.1 -1.01,-1.08 -1.08,-1.07 -2.32,-2.09 1.84,-3.34 1.71,-3.21 1.57,-3.1 1.44,-3.04 1.31,-3.02 1.17,-3.02 1.04,-3.09 0.9,-3.17 0.76,-3.31 0.63,-3.48 0.48,-3.68 0.35,-3.94 0.2,-4.23 0.07,-4.55 -0.08,-4.92 -0.22,-5.32 2.35,0.61 2.33,0.68 2.3,0.75 2.27,0.83 2.24,0.9 2.21,0.96 2.18,1.04 2.15,1.11 2.1,1.17 2.07,1.24 2.03,1.3 1.99,1.37 1.94,1.44 1.9,1.49 1.86,1.56 1.8,1.62 1.76,1.68 1.7,1.74 1.65,1.79 1.59,1.85 1.53,1.91 1.48,1.97 1.42,2.01 1.35,2.08 1.29,2.12 1.22,2.17 1.16,2.23 1.09,2.27 1.01,2.33 0.94,2.37 0.87,2.41 0.8,2.47 0.98,3.54 0.8,3.55 0.63,3.55 0.45,3.55 0.29,3.55 0.11,3.53 -0.05,3.51 -0.21,3.49 -0.38,3.47 -0.53,3.43 -0.69,3.39 -0.84,3.35 -0.99,3.3 -1.14,3.25 -1.28,3.19 -1.42,3.13 -1.57,3.06 -1.69,2.99 -1.84,2.91 -1.96,2.82 -2.1,2.74 -2.21,2.64 -2.35,2.54 -2.46,2.44 -2.58,2.33 -2.7,2.22 -2.81,2.1 -2.92,1.97 -3.02,1.85 -3.13,1.71 -3.24,1.57 z"
     style="fill:#ffffff;fill-rule:evenodd;stroke:#595959;stroke-width:0.43;stroke-linecap:butt"
     id="path24" />
  <path
     d="m 213.67,290.68 2.93,-1.47 2.82,-1.49 2.71,-1.54 2.59,-1.59 2.5,-1.63 2.4,-1.67 2.31,-1.74 2.22,-1.78 2.14,-1.85 2.07,-1.91 2,-1.98 1.93,-2.04 1.87,-2.12 1.82,-2.19 1.76,-2.27 1.73,-2.35 1.69,0.6 1.66,0.51 1.63,0.42 1.61,0.32 1.57,0.25 1.54,0.15 1.52,0.07 1.48,-0.01 1.46,-0.09 1.42,-0.16 1.39,-0.24 1.37,-0.32 1.33,-0.39 1.31,-0.46 1.27,-0.52 1.24,-0.6 1.22,-0.65 1.18,-0.72 1.15,-0.78 1.13,-0.84 1.09,-0.9 1.06,-0.95 1.03,-1 1,-1.05 0.97,-1.11 0.94,-1.15 0.9,-1.19 0.88,-1.24 1.66,-2.6 1.54,-2.75 4.77,0.81 4.49,0.65 4.24,0.49 4.01,0.35 3.82,0.18 3.65,0.05 3.51,-0.11 3.39,-0.25 3.31,-0.39 3.24,-0.53 3.21,-0.67 3.21,-0.81 3.22,-0.94 3.27,-1.07 3.34,-1.19 3.44,-1.33 0.05,2.32 -0.02,2.32 -0.09,2.31 -0.16,2.31 -0.23,2.3 -0.31,2.29 -0.37,2.29 -0.44,2.26 -0.51,2.26 -0.57,2.23 -0.65,2.22 -0.71,2.2 -0.78,2.18 -0.85,2.16 -0.91,2.13 -0.98,2.11 -1.05,2.07 -1.11,2.05 -1.18,2.01 -1.25,1.99 -1.3,1.94 -1.38,1.91 -1.43,1.88 -1.51,1.83 -1.56,1.79 -1.63,1.75 -1.69,1.7 -1.76,1.65 -1.81,1.61 -1.88,1.55 -1.94,1.51 -2,1.44 -3.06,2.06 -3.11,1.89 -3.17,1.72 -3.23,1.55 -3.27,1.39 -3.31,1.22 -3.35,1.06 -3.38,0.9 -3.4,0.73 -3.42,0.58 -3.43,0.41 -3.44,0.26 -3.44,0.1 -3.44,-0.06 -3.43,-0.21 -3.41,-0.37 -3.39,-0.51 -3.36,-0.68 -3.33,-0.82 -3.3,-0.97 -3.25,-1.13 -3.2,-1.27 -3.14,-1.42 -3.08,-1.56 -3.02,-1.71 -2.95,-1.86 -2.86,-1.99 -2.79,-2.14 -2.7,-2.29 -2.6,-2.42 -2.5,-2.56 z"
     style="fill:#ffffff;fill-rule:evenodd;stroke:#595959;stroke-width:0.43;stroke-linecap:butt"
     id="path26" />
  <path
     d="m 121.47,180.04 2.39,2.49 2.4,2.37 2.4,2.25 2.41,2.13 2.43,2.01 2.45,1.89 2.47,1.79 2.5,1.68 2.54,1.57 2.58,1.48 2.62,1.37 2.67,1.28 2.73,1.18 2.78,1.09 2.85,1.01 2.92,0.92 0.02,1.5 0.08,1.48 0.14,1.44 0.21,1.41 0.27,1.38 0.33,1.34 0.39,1.31 0.45,1.27 0.51,1.24 0.56,1.2 0.62,1.17 0.67,1.13 0.73,1.09 0.78,1.05 0.83,1.01 0.89,0.97 0.93,0.93 0.99,0.89 1.03,0.84 1.08,0.81 1.13,0.76 1.18,0.71 1.22,0.67 1.26,0.63 1.31,0.58 1.36,0.53 1.39,0.49 1.43,0.43 1.48,0.39 1.51,0.34 1.56,0.29 1.59,0.24 1.83,8.51 0.89,3.89 0.9,3.68 0.93,3.51 0.98,3.35 1.05,3.23 1.16,3.14 1.27,3.08 1.41,3.05 1.58,3.03 1.77,3.07 1.97,3.11 2.2,3.2 2.46,3.31 2.73,3.45 -2.3,0.88 -2.32,0.81 -2.35,0.73 -2.36,0.66 -2.39,0.58 -2.4,0.5 -2.41,0.42 -2.43,0.35 -2.44,0.26 -2.44,0.19 -2.45,0.11 -2.46,0.04 -2.45,-0.05 -2.46,-0.13 -2.45,-0.21 -2.45,-0.28 -2.44,-0.37 -2.44,-0.44 -2.42,-0.53 -2.41,-0.61 -2.39,-0.69 -2.38,-0.77 -2.36,-0.85 -2.34,-0.93 -2.32,-1.01 -2.29,-1.1 -2.26,-1.18 -2.24,-1.26 -2.2,-1.34 -2.17,-1.42 -2.13,-1.51 -2.1,-1.59 -2.8,-2.36 -2.66,-2.45 -2.52,-2.56 -2.38,-2.65 -2.24,-2.74 -2.09,-2.82 -1.94,-2.9 -1.81,-2.97 -1.65,-3.03 -1.51,-3.1 -1.37,-3.15 -1.22,-3.2 -1.06,-3.24 -0.93,-3.29 -0.77,-3.31 -0.62,-3.35 -0.47,-3.36 -0.33,-3.39 -0.17,-3.39 -0.02,-3.4 0.14,-3.4 0.28,-3.39 0.44,-3.39 0.59,-3.37 0.75,-3.34 0.9,-3.32 1.06,-3.29 1.22,-3.24 1.37,-3.21 1.53,-3.15 1.69,-3.1 z"
     style="fill:#ffffff;fill-rule:evenodd;stroke:#595959;stroke-width:0.43;stroke-linecap:butt"
     id="path28" />
  <path
     d="m 293.37,97.58 2.91,-0.94 2.85,-0.8 2.81,-0.68 2.77,-0.55 2.75,-0.44 2.74,-0.32 2.75,-0.21 2.75,-0.11 2.79,-0.01 2.82,0.09 2.88,0.18 2.94,0.27 3.01,0.35 3.09,0.43 3.2,0.5 0.22,5.32 0.08,4.92 -0.07,4.55 -0.2,4.23 -0.35,3.94 -0.48,3.68 -0.63,3.48 -0.76,3.31 -0.9,3.17 -1.04,3.09 -1.17,3.02 -1.31,3.02 -1.44,3.04 -1.57,3.1 -1.71,3.21 -1.84,3.34 -1.58,-1.41 -1.65,-1.39 -1.72,-1.38 -1.77,-1.35 -3.71,-2.67 -3.87,-2.62 -3.99,-2.59 -4.07,-2.57 -8.2,-5.16 0.78,-2.35 0.71,-2.33 0.61,-2.31 0.51,-2.29 0.4,-2.25 0.28,-2.23 0.15,-2.2 0.02,-2.16 -0.13,-2.13 -0.28,-2.09 -0.44,-2.05 -0.61,-2.01 -0.79,-1.97 -0.97,-1.91 -1.17,-1.87 -1.37,-1.82 z"
     style="fill:#ffffff;fill-rule:evenodd;stroke:#595959;stroke-width:0.43;stroke-linecap:butt"
     id="path38" />
  <path
     d="m 247.74,263.41 -1.76,2.27 -1.82,2.19 -1.87,2.12 -1.93,2.04 -2,1.98 -2.07,1.91 -2.14,1.85 -2.22,1.78 -2.31,1.74 -2.4,1.67 -2.5,1.63 -2.59,1.59 -2.71,1.54 -2.82,1.49 -2.93,1.47 -2.73,-3.45 -2.46,-3.31 -2.2,-3.2 -1.97,-3.11 -1.77,-3.07 -1.58,-3.03 -1.41,-3.05 -1.27,-3.08 -1.16,-3.14 -1.05,-3.23 -0.98,-3.35 -0.93,-3.51 -0.9,-3.68 -0.89,-3.89 -1.83,-8.51 2.26,0.25 2.31,0.18 2.37,0.12 2.41,0.06 4.93,-0.03 5.06,-0.19 5.15,-0.31 5.21,-0.36 10.45,-0.74 0.73,2.19 0.77,2.14 0.81,2.08 0.86,2.02 0.92,1.96 0.97,1.88 1.03,1.81 1.09,1.72 1.17,1.64 1.24,1.55 1.31,1.44 1.4,1.35 1.48,1.23 1.57,1.12 1.67,1 1.76,0.88 z"
     style="fill:#ffffff;fill-rule:evenodd;stroke:#595959;stroke-width:0.43;stroke-linecap:butt"
     id="path48" />
  <path
     d="m 263.03,202.62 -2.8,-0.18 -2.78,-0.13 -2.78,-0.06 h -2.77 l -2.77,0.06 -2.78,0.13 -2.78,0.2 -2.8,0.28 -2.82,0.35 -2.83,0.43 -2.87,0.52 -2.89,0.6 -2.93,0.68 -2.97,0.78 -0.71,-2.84 -0.75,-2.78 -0.81,-2.73 -0.85,-2.69 -0.91,-2.65 -0.97,-2.61 -1.02,-2.59 -1.1,-2.56 -1.16,-2.56 -1.24,-2.54 -1.31,-2.54 -1.4,-2.54 -1.47,-2.55 -1.57,-2.57 -1.65,-2.58 -1.75,-2.62 5.07,-3.01 2.47,-1.55 2.44,-1.59 2.4,-1.63 2.36,-1.67 2.32,-1.73 2.29,-1.78 2.26,-1.85 2.22,-1.92 2.19,-1.99 2.15,-2.08 2.13,-2.17 2.1,-2.26 2.06,-2.36 2.04,-2.46 2.25,1.94 2.24,1.88 2.26,1.8 2.28,1.74 2.3,1.67 2.33,1.61 2.37,1.55 2.41,1.49 2.46,1.44 2.52,1.39 2.58,1.34 2.66,1.29 2.72,1.24 2.82,1.2 2.9,1.17 2.99,1.12 -2.43,5.29 -1.15,2.65 -1.09,2.66 -1.04,2.68 -0.98,2.69 -0.93,2.73 -0.86,2.75 -0.79,2.78 -0.72,2.82 -0.65,2.86 -0.58,2.91 -0.49,2.95 -0.42,3.01 -0.33,3.07 -0.24,3.14 z"
     style="fill:#ffffff;fill-rule:evenodd;stroke:#595959;stroke-width:0.43;stroke-linecap:butt"
     id="path80" />
  <polyline
     points="198.61,59.07 195.12,58.32 191.63,57.75 188.13,57.34 184.64,57.09 181.16,57.01 177.70,57.09 174.25,57.32 170.83,57.71 167.44,58.25 164.08,58.94 160.77,59.78 157.50,60.77 154.28,61.90 151.11,63.17 148.01,64.58 144.97,66.13 142.00,67.81 139.11,69.63 136.29,71.57 133.57,73.64 130.93,75.84 128.39,78.16 125.96,80.61 123.62,83.17 121.40,85.85 119.30,88.64 117.32,91.54 115.46,94.56 113.74,97.68 112.15,100.91 110.71,104.24 109.41,107.66 108.60,110.05 107.87,112.45 107.23,114.85 106.67,117.26 106.19,119.68 105.80,122.09 105.48,124.51 105.25,126.92 105.09,129.33 105.01,131.73 105.01,134.13 105.09,136.52 105.24,138.90 105.47,141.27 105.77,143.63 106.14,145.97 106.59,148.29 107.11,150.60 107.70,152.88 108.36,155.15 109.09,157.39 109.89,159.61 110.75,161.79 111.69,163.96 112.68,166.09 113.75,168.19 114.88,170.26 116.07,172.29 117.33,174.29 118.65,176.24 120.03,178.16 121.47,180.04 121.47,180.04 123.86,182.53 126.26,184.90 128.66,187.15 131.07,189.28 133.50,191.29 135.95,193.18 138.42,194.97 140.92,196.65 143.46,198.22 146.04,199.70 148.66,201.07 151.33,202.35 154.06,203.53 156.84,204.62 159.69,205.63 162.61,206.55 162.61,206.55 166.32,207.61 169.90,208.51 173.35,209.27 176.68,209.88 179.89,210.37 183.00,210.74 186.02,210.99 188.95,211.14 188.95,211.14 191.39,211.19 193.78,211.16 196.11,211.08 198.39,210.93 200.62,210.73 202.81,210.47 207.09,209.84 211.26,209.06 215.35,208.18 223.46,206.28 223.46,206.28 226.43,205.50 229.36,204.82 232.25,204.22 235.12,203.70 237.95,203.27 240.77,202.92 243.57,202.64 246.35,202.44 249.13,202.31 251.90,202.25 254.67,202.25 257.45,202.31 260.23,202.44 263.03,202.62 268.68,203.14 268.68,203.14 276.38,204.02 284.10,204.89 287.94,205.25 291.73,205.53 295.47,205.71 299.15,205.77 299.15,205.77 301.51,205.73 303.84,205.63 306.12,205.45 308.35,205.18 310.53,204.83 312.64,204.38 314.70,203.84 316.68,203.18 318.60,202.41 320.43,201.52 322.19,200.50 323.86,199.34 325.44,198.05 326.93,196.60 328.32,195.00 329.61,193.24 329.61,193.24 330.50,191.86 331.32,190.48 332.06,189.10 332.72,187.74 333.31,186.38 333.82,185.03 334.26,183.69 334.63,182.36 334.93,181.04 335.15,179.73 335.31,178.42 335.39,177.13 335.40,175.85 335.35,174.57 335.22,173.31 335.03,172.06 334.77,170.82 334.45,169.59 334.06,168.37 333.60,167.17 333.08,165.98 332.49,164.80 331.84,163.63 331.13,162.48 330.36,161.34 329.52,160.21 328.63,159.10 327.67,158.00 326.66,156.92 325.58,155.85 323.26,153.76 323.26,153.76 321.68,152.35 320.03,150.96 318.31,149.58 316.54,148.23 312.83,145.56 308.96,142.94 304.97,140.35 300.90,137.78 292.70,132.62 292.70,132.62 288.86,130.12 285.19,127.60 281.67,125.03 278.28,122.39 275.02,119.65 271.88,116.80 268.85,113.80 265.91,110.64 265.91,110.64 263.90,108.34 261.99,106.04 258.36,101.49 254.88,96.99 251.39,92.57 251.39,92.57 248.63,89.27 245.89,86.16 243.15,83.26 240.40,80.53 237.61,77.99 234.76,75.60 231.83,73.38 228.80,71.31 225.65,69.38 222.37,67.58 218.92,65.90 215.30,64.34 211.48,62.88 207.43,61.53 203.15,60.26 198.61,59.07 "
     style="stroke:#f8766d;stroke-width:1.07;stroke-linecap:butt"
     id="polyline82" />
  <polyline
     points="336.43,95.34 336.05,91.73 335.51,88.16 334.80,84.66 333.93,81.22 332.90,77.84 331.72,74.53 330.39,71.29 328.92,68.13 327.31,65.06 325.56,62.06 323.68,59.16 321.67,56.35 319.54,53.63 317.29,51.02 314.92,48.52 312.45,46.12 309.86,43.83 307.18,41.67 304.39,39.63 301.51,37.71 298.54,35.92 295.49,34.27 292.35,32.75 289.13,31.38 285.84,30.15 282.48,29.07 279.06,28.15 275.57,27.39 272.02,26.79 268.43,26.35 264.78,26.09 261.08,26.00 258.66,26.04 256.26,26.15 253.87,26.34 251.51,26.60 249.17,26.94 246.85,27.34 244.56,27.82 242.29,28.36 240.05,28.97 237.84,29.65 235.66,30.39 233.51,31.20 231.39,32.07 229.30,33.00 227.24,34.00 225.22,35.05 223.24,36.16 221.29,37.33 219.39,38.55 217.52,39.83 215.69,41.17 213.90,42.55 212.16,43.99 210.46,45.48 208.81,47.02 207.20,48.60 205.65,50.24 204.14,51.92 202.68,53.64 201.27,55.41 199.91,57.22 198.61,59.07 198.61,59.07 196.90,61.73 195.33,64.36 193.87,66.96 192.54,69.56 191.33,72.16 190.25,74.78 189.27,77.44 188.42,80.16 187.68,82.95 187.06,85.82 186.54,88.80 186.14,91.89 185.85,95.11 185.66,98.49 185.58,102.02 185.60,105.74 185.60,105.74 185.76,109.86 186.02,113.78 186.39,117.51 186.85,121.07 187.41,124.46 188.05,127.70 188.78,130.78 189.59,133.74 189.59,133.74 190.30,136.05 191.06,138.29 191.86,140.45 192.70,142.54 193.58,144.58 194.48,146.55 196.39,150.35 198.40,153.99 200.48,157.50 202.62,160.94 204.79,164.33 204.79,164.33 206.54,166.95 208.19,169.53 209.76,172.10 211.23,174.65 212.63,177.19 213.94,179.73 215.18,182.27 216.34,184.83 217.44,187.39 218.46,189.98 219.43,192.59 220.34,195.24 221.19,197.93 222.00,200.66 222.75,203.44 223.46,206.28 223.46,206.28 225.15,213.55 226.84,220.87 227.72,224.50 228.64,228.09 229.63,231.61 230.69,235.05 230.69,235.05 231.42,237.24 232.19,239.38 233.00,241.46 233.86,243.48 234.78,245.44 235.75,247.32 236.78,249.13 237.87,250.85 239.04,252.49 240.28,254.04 241.59,255.48 242.99,256.83 244.47,258.06 246.04,259.18 247.71,260.18 249.47,261.06 249.47,261.06 251.16,261.66 252.82,262.17 254.45,262.59 256.06,262.91 257.63,263.16 259.17,263.31 260.69,263.38 262.17,263.37 263.63,263.28 265.05,263.12 266.44,262.88 267.81,262.56 269.14,262.17 270.45,261.71 271.72,261.19 272.96,260.59 274.18,259.94 275.36,259.22 276.51,258.44 277.64,257.60 278.73,256.70 279.79,255.75 280.82,254.75 281.82,253.70 282.79,252.59 283.73,251.44 284.63,250.25 285.51,249.01 287.17,246.41 288.71,243.66 288.71,243.66 289.59,241.60 290.42,239.47 291.20,237.27 291.94,235.03 293.31,230.39 294.57,225.61 295.75,220.71 296.88,215.74 299.15,205.77 299.15,205.77 300.19,201.46 301.34,197.24 302.61,193.12 304.00,189.10 305.51,185.16 307.17,181.30 308.96,177.51 310.90,173.79 310.90,173.79 312.44,171.11 314.00,168.51 317.13,163.51 320.24,158.65 323.26,153.76 323.26,153.76 325.10,150.42 326.81,147.21 328.38,144.11 329.82,141.07 331.13,138.05 332.30,135.03 333.34,131.94 334.24,128.77 335.00,125.46 335.63,121.98 336.11,118.30 336.46,114.36 336.66,110.13 336.73,105.58 336.65,100.66 336.43,95.34 "
     style="stroke:#a3a500;stroke-width:1.07;stroke-linecap:butt"
     id="polyline84" />
  <polyline
     points="346.83,238.90 350.16,237.48 353.40,235.91 356.53,234.20 359.55,232.35 362.47,230.38 365.28,228.28 367.98,226.06 370.56,223.73 373.02,221.29 375.37,218.75 377.58,216.11 379.68,213.37 381.64,210.55 383.48,207.64 385.17,204.65 386.74,201.59 388.16,198.46 389.44,195.27 390.58,192.02 391.57,188.72 392.41,185.37 393.10,181.98 393.63,178.55 394.01,175.08 394.22,171.59 394.27,168.08 394.16,164.55 393.87,161.00 393.42,157.45 392.79,153.90 391.99,150.35 391.01,146.81 390.21,144.34 389.34,141.93 388.40,139.56 387.39,137.23 386.30,134.96 385.14,132.73 383.92,130.56 382.63,128.44 381.28,126.36 379.86,124.35 378.38,122.38 376.85,120.47 375.26,118.62 373.61,116.83 371.91,115.09 370.15,113.41 368.35,111.79 366.49,110.23 364.59,108.74 362.65,107.30 360.66,105.93 358.63,104.63 356.56,103.39 354.46,102.22 352.31,101.11 350.13,100.07 347.92,99.11 345.68,98.21 343.41,97.38 341.11,96.63 338.78,95.95 336.43,95.34 336.43,95.34 333.23,94.84 330.14,94.41 327.13,94.06 324.19,93.79 321.31,93.61 318.49,93.52 315.70,93.53 312.95,93.64 310.20,93.85 307.46,94.17 304.71,94.61 301.94,95.16 299.13,95.84 296.28,96.64 293.37,97.58 290.40,98.65 290.40,98.65 286.69,100.01 283.19,101.42 279.89,102.87 276.76,104.35 273.82,105.87 271.03,107.43 268.40,109.02 265.91,110.64 265.91,110.64 263.95,112.01 262.06,113.41 260.26,114.82 258.53,116.25 256.87,117.70 255.27,119.16 252.22,122.11 249.35,125.11 246.61,128.15 241.29,134.28 241.29,134.28 239.25,136.74 237.19,139.10 235.09,141.36 232.96,143.53 230.81,145.61 228.62,147.60 226.40,149.52 224.14,151.37 221.85,153.15 219.53,154.88 217.17,156.55 214.77,158.18 212.33,159.77 209.86,161.32 204.79,164.33 204.79,164.33 198.51,167.92 192.26,171.57 189.19,173.43 186.19,175.32 183.28,177.25 180.47,179.23 180.47,179.23 178.59,180.64 176.78,182.08 175.05,183.55 173.40,185.05 171.84,186.59 170.37,188.17 169.01,189.79 167.76,191.44 166.63,193.15 165.63,194.90 164.76,196.70 164.02,198.56 163.43,200.47 162.99,202.43 162.72,204.46 162.61,206.55 162.61,206.55 162.63,208.05 162.71,209.53 162.85,210.97 163.06,212.38 163.33,213.76 163.66,215.10 164.05,216.41 164.50,217.68 165.01,218.92 165.57,220.12 166.19,221.29 166.86,222.42 167.59,223.51 168.37,224.56 169.20,225.57 170.09,226.54 171.02,227.47 172.01,228.36 173.04,229.20 174.12,230.01 175.25,230.77 176.43,231.48 177.65,232.15 178.91,232.78 180.22,233.36 181.58,233.89 182.97,234.38 184.40,234.81 185.88,235.20 187.39,235.54 188.95,235.83 190.54,236.07 190.54,236.07 192.80,236.32 195.11,236.50 197.48,236.62 199.89,236.68 204.82,236.65 209.88,236.46 215.03,236.15 220.24,235.79 230.69,235.05 230.69,235.05 234.85,234.85 238.93,234.74 242.96,234.75 246.93,234.88 250.86,235.14 254.76,235.54 258.62,236.09 262.47,236.81 262.47,236.81 265.98,237.57 269.37,238.40 272.68,239.27 275.92,240.17 282.30,241.98 285.49,242.85 288.71,243.66 288.71,243.66 293.48,244.47 297.97,245.12 302.21,245.61 306.22,245.96 310.04,246.14 313.69,246.19 317.20,246.08 320.59,245.83 323.90,245.44 327.14,244.91 330.35,244.24 333.56,243.43 336.78,242.49 340.05,241.42 343.39,240.23 346.83,238.90 "
     style="stroke:#00bf7d;stroke-width:1.07;stroke-linecap:butt"
     id="polyline86" />
  <polyline
     points="213.67,290.68 216.06,293.37 218.56,295.93 221.16,298.35 223.86,300.64 226.65,302.78 229.51,304.77 232.46,306.63 235.48,308.34 238.56,309.90 241.70,311.32 244.90,312.59 248.15,313.72 251.45,314.69 254.78,315.51 258.14,316.19 261.53,316.70 264.94,317.07 268.37,317.28 271.81,317.34 275.25,317.24 278.69,316.98 282.12,316.57 285.54,315.99 288.94,315.26 292.32,314.36 295.67,313.30 298.98,312.08 302.25,310.69 305.48,309.14 308.65,307.42 311.76,305.53 314.82,303.47 316.82,302.03 318.76,300.52 320.64,298.97 322.45,297.36 324.21,295.71 325.90,294.01 327.53,292.26 329.09,290.47 330.60,288.64 332.03,286.76 333.41,284.85 334.71,282.91 335.96,280.92 337.14,278.91 338.25,276.86 339.30,274.79 340.28,272.68 341.19,270.55 342.04,268.39 342.82,266.21 343.53,264.01 344.18,261.79 344.75,259.56 345.26,257.30 345.70,255.04 346.07,252.75 346.38,250.46 346.61,248.16 346.77,245.85 346.86,243.54 346.88,241.22 346.83,238.90 346.83,238.90 346.37,235.50 345.85,232.19 345.24,228.96 344.57,225.81 343.81,222.74 342.98,219.74 342.06,216.81 341.06,213.96 339.96,211.17 338.78,208.44 337.50,205.77 336.13,203.17 334.65,200.61 333.08,198.11 331.40,195.65 329.61,193.24 329.61,193.24 327.21,190.16 324.83,187.28 322.46,184.59 320.11,182.10 317.78,179.78 315.47,177.63 313.17,175.63 310.90,173.79 310.90,173.79 309.02,172.37 307.15,171.03 305.29,169.77 303.43,168.59 301.58,167.47 299.73,166.42 296.05,164.49 292.38,162.74 288.71,161.13 285.05,159.62 281.38,158.15 281.38,158.15 278.39,157.03 275.49,155.86 272.67,154.66 269.95,153.42 267.29,152.13 264.71,150.79 262.19,149.40 259.73,147.96 257.32,146.47 254.95,144.92 252.62,143.31 250.32,141.64 248.04,139.90 245.78,138.10 243.54,136.22 241.29,134.28 241.29,134.28 235.94,129.49 230.57,124.68 227.87,122.32 225.16,120.02 222.44,117.79 219.71,115.67 219.71,115.67 217.63,114.12 215.54,112.66 213.44,111.28 211.34,110.00 209.23,108.83 207.12,107.78 205.00,106.85 202.87,106.06 200.74,105.41 198.60,104.92 196.46,104.59 194.30,104.44 192.14,104.47 189.97,104.69 187.79,105.11 186.70,105.40 185.60,105.74 185.60,105.74 184.13,106.39 182.71,107.07 181.35,107.79 180.05,108.53 178.80,109.31 177.61,110.11 176.47,110.95 175.39,111.82 174.37,112.71 173.41,113.64 172.50,114.60 171.65,115.60 170.86,116.62 170.12,117.67 169.45,118.76 168.83,119.87 168.27,121.02 167.77,122.20 167.33,123.41 166.94,124.65 166.62,125.92 166.35,127.23 166.15,128.56 166.00,129.93 165.91,131.33 165.89,132.76 165.92,134.22 166.01,135.72 166.17,137.24 166.38,138.80 166.66,140.39 167.00,142.01 167.00,142.01 167.49,144.21 168.06,146.43 168.70,148.68 169.40,150.96 170.98,155.56 172.73,160.23 174.61,164.94 176.57,169.69 180.47,179.23 180.47,179.23 182.04,183.24 183.47,187.23 184.76,191.20 185.90,195.17 186.89,199.14 187.74,203.12 188.42,207.12 188.95,211.14 188.95,211.14 189.26,214.41 189.50,217.61 189.84,223.86 190.14,229.98 190.31,233.02 190.54,236.07 190.54,236.07 192.37,244.58 193.26,248.47 194.16,252.15 195.09,255.66 196.07,259.01 197.12,262.24 198.28,265.38 199.55,268.46 200.96,271.51 202.54,274.54 204.31,277.61 206.28,280.72 208.48,283.92 210.94,287.23 213.67,290.68 "
     style="stroke:#00b0f6;stroke-width:1.07;stroke-linecap:butt"
     id="polyline88" />
  <polyline
     points="121.47,180.04 119.63,183.08 117.94,186.18 116.41,189.33 115.04,192.54 113.82,195.78 112.76,199.07 111.86,202.39 111.11,205.73 110.52,209.10 110.08,212.49 109.80,215.88 109.66,219.28 109.68,222.68 109.85,226.07 110.18,229.46 110.65,232.82 111.27,236.17 112.04,239.48 112.97,242.77 114.03,246.01 115.25,249.21 116.62,252.36 118.13,255.46 119.78,258.49 121.59,261.46 123.53,264.36 125.62,267.18 127.86,269.92 130.24,272.57 132.76,275.13 135.42,277.58 138.22,279.94 140.32,281.53 142.45,283.04 144.62,284.46 146.82,285.80 149.06,287.06 151.32,288.24 153.61,289.34 155.93,290.35 158.27,291.28 160.63,292.13 163.01,292.90 165.40,293.59 167.81,294.20 170.23,294.73 172.67,295.17 175.11,295.54 177.56,295.82 180.01,296.03 182.47,296.16 184.92,296.21 187.38,296.17 189.83,296.06 192.27,295.87 194.71,295.61 197.14,295.26 199.55,294.84 201.95,294.34 204.34,293.76 206.70,293.10 209.05,292.37 211.37,291.56 213.67,290.68 213.67,290.68 216.60,289.21 219.42,287.72 222.13,286.18 224.72,284.59 227.22,282.96 229.62,281.29 231.93,279.55 234.15,277.77 236.29,275.92 238.36,274.01 240.36,272.03 242.29,269.99 244.16,267.87 245.98,265.68 247.74,263.41 249.47,261.06 249.47,261.06 251.73,257.76 253.79,254.55 255.65,251.43 257.34,248.38 258.85,245.40 260.20,242.48 261.40,239.62 262.47,236.81 262.47,236.81 263.25,234.56 263.95,232.34 264.58,230.15 265.14,227.98 265.64,225.84 266.08,223.72 266.82,219.53 267.40,215.40 267.87,211.30 268.68,203.14 268.68,203.14 268.92,200.00 269.25,196.93 269.67,193.92 270.16,190.97 270.74,188.06 271.39,185.20 272.11,182.38 272.90,179.60 273.76,176.85 274.69,174.12 275.67,171.43 276.71,168.75 277.80,166.09 278.95,163.44 281.38,158.15 281.38,158.15 284.45,151.75 287.47,145.34 288.91,142.14 290.27,138.95 291.54,135.78 292.70,132.62 292.70,132.62 293.48,130.27 294.19,127.94 294.80,125.63 295.31,123.34 295.71,121.09 295.99,118.86 296.14,116.66 296.16,114.50 296.03,112.37 295.75,110.28 295.31,108.23 294.70,106.22 293.91,104.25 292.94,102.34 291.77,100.47 290.40,98.65 290.40,98.65 289.13,97.19 287.86,95.85 286.59,94.61 285.32,93.49 284.05,92.46 282.79,91.54 281.53,90.71 280.27,89.98 279.02,89.34 277.76,88.79 276.52,88.32 275.27,87.93 274.03,87.62 272.79,87.39 271.56,87.23 270.33,87.14 269.10,87.11 267.88,87.15 266.66,87.25 265.45,87.40 264.25,87.61 263.05,87.87 260.66,88.53 258.31,89.35 255.97,90.32 253.67,91.40 251.39,92.57 251.39,92.57 249.43,93.64 247.46,94.80 245.50,96.03 243.53,97.32 239.59,100.09 235.64,103.04 231.68,106.13 227.71,109.30 219.71,115.67 219.71,115.67 216.11,118.46 212.47,121.10 208.79,123.60 205.06,125.94 201.28,128.13 197.44,130.16 193.55,132.03 189.59,133.74 189.59,133.74 186.66,134.88 183.78,135.96 178.12,137.96 172.54,139.92 169.77,140.94 167.00,142.01 167.00,142.01 159.36,146.23 152.52,150.09 149.36,151.98 146.35,153.87 143.48,155.80 140.74,157.80 138.10,159.89 135.56,162.13 133.10,164.52 130.70,167.11 128.36,169.93 126.05,173.00 123.76,176.36 121.47,180.04 "
     style="stroke:#e76bf3;stroke-width:1.07;stroke-linecap:butt"
     id="polyline90" />
  <text
     x="107.79"
     y="73.699997"
     text-anchor="middle"
     style="font-size:12px;font-family:Arial"
     textLength="8.0100002"
     lengthAdjust="spacingAndGlyphs"
     id="text92">A</text>
  <text
     x="261.45999"
     y="19.66"
     text-anchor="middle"
     style="font-size:12px;font-family:Arial"
     textLength="8.0100002"
     lengthAdjust="spacingAndGlyphs"
     id="text94">B</text>
  <text
     x="384.72"
     y="107.47"
     text-anchor="middle"
     style="font-size:12px;font-family:Arial"
     textLength="8.6700001"
     lengthAdjust="spacingAndGlyphs"
     id="text96">C</text>
  <text
     x="317.17999"
     y="326.98999"
     text-anchor="middle"
     style="font-size:12px;font-family:Arial"
     textLength="8.6700001"
     lengthAdjust="spacingAndGlyphs"
     id="text98">D</text>
  <text
     x="121.3"
     y="303.35001"
     text-anchor="middle"
     style="font-size:12px;font-family:Arial"
     textLength="8.0100002"
     lengthAdjust="spacingAndGlyphs"
     id="text100">E</text>
  <polygon
     points="236.78,276.84 237.12,276.83 237.46,276.76 237.79,276.64 238.09,276.46 238.36,276.24 238.59,275.98 238.78,275.69 238.91,275.37 238.99,275.03 239.02,274.68 239.02,274.68 239.02,250.97 239.02,250.97 238.99,250.62 238.91,250.28 238.78,249.96 238.59,249.67 238.36,249.41 238.09,249.19 237.79,249.02 237.46,248.89 237.12,248.82 236.86,248.81 208.65,248.81 208.91,248.82 208.56,248.81 208.21,248.85 207.88,248.95 207.57,249.1 207.28,249.29 207.03,249.54 206.82,249.81 206.66,250.12 206.55,250.45 206.49,250.79 206.49,250.97 206.49,274.68 206.49,274.51 206.49,274.86 206.55,275.2 206.66,275.53 206.82,275.84 207.03,276.12 207.28,276.36 207.57,276.56 207.88,276.7 208.21,276.8 208.56,276.84 208.65,276.84 236.86,276.84 "
     style="fill:#ffffff;fill-opacity:0.5;stroke:none"
     id="polygon186" />
</svg>
